<svg xmlns="http://www.w3.org/2000/svg" xmlns:xlink="http://www.w3.org/1999/xlink" contentStyleType="text/css" data-diagram-type="SEQUENCE" height="559px" preserveAspectRatio="none" style="width:1412px;height:559px;background:#FFFFFF;" version="1.1" viewBox="0 0 1412 559" width="1412px" zoomAndPan="magnify"><?plantuml 1.2026.7beta1?><defs/><g><g><title>Navegador</title><rect fill="#FFFFFF" height="346.4609" style="stroke:#181818;stroke-width:1;" width="10" x="341.835" y="112.4297"/></g><g><title>CargaTrabajoController</title><rect fill="#FFFFFF" height="288.1953" style="stroke:#181818;stroke-width:1;" width="10" x="557.2383" y="141.5625"/></g><g><title>InvestigadorService</title><rect fill="#FFFFFF" height="116.5313" style="stroke:#181818;stroke-width:1;" width="10" x="870.9414" y="212.8281"/></g><g><title>InvestigadorRepository</title><rect fill="#FFFFFF" height="58.2656" style="stroke:#181818;stroke-width:1;" width="10" x="1045.5952" y="241.9609"/></g><g class="participant-lifeline" data-entity-uid="part1" data-qualified-name="Coord" data-source-line="3" id="part1-lifeline"><g><title>Coordinador</title><rect fill="#000000" fill-opacity="0.00000" height="395.5938" width="8" x="47.0493" y="81.2969"/><line style="stroke:#181818;stroke-width:0.5;stroke-dasharray:5,5;" x1="51" x2="51" y1="81.2969" y2="476.8906"/></g></g><g class="participant-lifeline" data-entity-uid="part2" data-qualified-name="Nav" data-source-line="4" id="part2-lifeline"><g><title>Navegador</title><rect fill="#000000" fill-opacity="0.00000" height="395.5938" width="8" x="342.835" y="81.2969"/><line style="stroke:#181818;stroke-width:0.5;stroke-dasharray:5,5;" x1="346.5229" x2="346.5229" y1="81.2969" y2="476.8906"/></g></g><g class="participant-lifeline" data-entity-uid="part3" data-qualified-name="Ctrl" data-source-line="5" id="part3-lifeline"><g><title>CargaTrabajoController</title><rect fill="#000000" fill-opacity="0.00000" height="395.5938" width="8" x="558.2383" y="81.2969"/><line style="stroke:#181818;stroke-width:0.5;stroke-dasharray:5,5;" x1="561.46" x2="561.46" y1="81.2969" y2="476.8906"/></g></g><g class="participant-lifeline" data-entity-uid="part4" data-qualified-name="Service" data-source-line="6" id="part4-lifeline"><g><title>InvestigadorService</title><rect fill="#000000" fill-opacity="0.00000" height="395.5938" width="8" x="871.9414" y="81.2969"/><line style="stroke:#181818;stroke-width:0.5;stroke-dasharray:5,5;" x1="875.4473" x2="875.4473" y1="81.2969" y2="476.8906"/></g></g><g class="participant-lifeline" data-entity-uid="part5" data-qualified-name="Repo" data-source-line="7" id="part5-lifeline"><g><title>InvestigadorRepository</title><rect fill="#000000" fill-opacity="0.00000" height="395.5938" width="8" x="1046.5952" y="81.2969"/><line style="stroke:#181818;stroke-width:0.5;stroke-dasharray:5,5;" x1="1050.4355" x2="1050.4355" y1="81.2969" y2="476.8906"/></g></g><g class="participant-lifeline" data-entity-uid="part6" data-qualified-name="DB" data-source-line="8" id="part6-lifeline"><g><title>H2</title><rect fill="#000000" fill-opacity="0.00000" height="395.5938" width="8" x="1379.0703" y="81.2969"/><line style="stroke:#181818;stroke-width:0.5;stroke-dasharray:5,5;" x1="1383.0703" x2="1383.0703" y1="81.2969" y2="476.8906"/></g></g><g class="participant participant-head" data-entity-uid="part1" data-qualified-name="Coord" data-source-line="3" id="part1-head"><text fill="#000000" font-family="sans-serif" font-size="14" lengthAdjust="spacing" textLength="86.0986" x="5" y="77.9951">Coordinador</text><ellipse cx="51.0493" cy="13.5" fill="#E2E2F0" rx="8" ry="8" style="stroke:#181818;stroke-width:0.5;"/><path d="M51.0493,21.5 L51.0493,48.5 M38.0493,29.5 L64.0493,29.5 M51.0493,48.5 L38.0493,63.5 M51.0493,48.5 L64.0493,63.5" fill="none" style="stroke:#181818;stroke-width:0.5;"/></g><g class="participant participant-tail" data-entity-uid="part1" data-qualified-name="Coord" data-source-line="3" id="part1-tail"><text fill="#000000" font-family="sans-serif" font-size="14" lengthAdjust="spacing" textLength="86.0986" x="5" y="488.8857">Coordinador</text><ellipse cx="51.0493" cy="500.6875" fill="#E2E2F0" rx="8" ry="8" style="stroke:#181818;stroke-width:0.5;"/><path d="M51.0493,508.6875 L51.0493,535.6875 M38.0493,516.6875 L64.0493,516.6875 M51.0493,535.6875 L38.0493,550.6875 M51.0493,535.6875 L64.0493,550.6875" fill="none" style="stroke:#181818;stroke-width:0.5;"/></g><g class="participant participant-head" data-entity-uid="part2" data-qualified-name="Nav" data-source-line="4" id="part2-head"><rect fill="#E2E2F0" height="30.2969" rx="2.5" ry="2.5" style="stroke:#181818;stroke-width:0.5;" width="90.624" x="301.5229" y="50"/><text fill="#000000" font-family="sans-serif" font-size="14" lengthAdjust="spacing" textLength="76.624" x="308.5229" y="69.9951">Navegador</text></g><g class="participant participant-tail" data-entity-uid="part2" data-qualified-name="Nav" data-source-line="4" id="part2-tail"><rect fill="#E2E2F0" height="30.2969" rx="2.5" ry="2.5" style="stroke:#181818;stroke-width:0.5;" width="90.624" x="301.5229" y="475.8906"/><text fill="#000000" font-family="sans-serif" font-size="14" lengthAdjust="spacing" textLength="76.624" x="308.5229" y="495.8857">Navegador</text></g><g class="participant participant-head" data-entity-uid="part3" data-qualified-name="Ctrl" data-source-line="5" id="part3-head"><rect fill="#E2E2F0" height="62.8906" rx="2.5" ry="2.5" style="stroke:#181818;stroke-width:0.5;" width="177.5566" x="473.46" y="17.4063"/><text fill="#000000" font-family="sans-serif" font-size="14" lengthAdjust="spacing" textLength="163.5566" x="480.46" y="37.4014">CargaTrabajoController</text><text fill="#000000" font-family="sans-serif" font-size="14" lengthAdjust="spacing" textLength="83.1729" x="520.6519" y="53.6982">@Controller</text><text fill="#000000" font-family="sans-serif" font-size="14" lengthAdjust="spacing" textLength="131.708" x="496.3843" y="69.9951">GET /carga-trabajo</text></g><g class="participant participant-tail" data-entity-uid="part3" data-qualified-name="Ctrl" data-source-line="5" id="part3-tail"><rect fill="#E2E2F0" height="62.8906" rx="2.5" ry="2.5" style="stroke:#181818;stroke-width:0.5;" width="177.5566" x="473.46" y="475.8906"/><text fill="#000000" font-family="sans-serif" font-size="14" lengthAdjust="spacing" textLength="163.5566" x="480.46" y="495.8857">CargaTrabajoController</text><text fill="#000000" font-family="sans-serif" font-size="14" lengthAdjust="spacing" textLength="83.1729" x="520.6519" y="512.1826">@Controller</text><text fill="#000000" font-family="sans-serif" font-size="14" lengthAdjust="spacing" textLength="131.708" x="496.3843" y="528.4795">GET /carga-trabajo</text></g><g class="participant participant-head" data-entity-uid="part4" data-qualified-name="Service" data-source-line="6" id="part4-head"><rect fill="#E2E2F0" height="46.5938" rx="2.5" ry="2.5" style="stroke:#181818;stroke-width:0.5;" width="152.9883" x="799.4473" y="33.7031"/><text fill="#000000" font-family="sans-serif" font-size="14" lengthAdjust="spacing" textLength="138.9883" x="806.4473" y="53.6982">InvestigadorService</text><text fill="#000000" font-family="sans-serif" font-size="14" lengthAdjust="spacing" textLength="65.7412" x="843.0708" y="69.9951">@Service</text></g><g class="participant participant-tail" data-entity-uid="part4" data-qualified-name="Service" data-source-line="6" id="part4-tail"><rect fill="#E2E2F0" height="46.5938" rx="2.5" ry="2.5" style="stroke:#181818;stroke-width:0.5;" width="152.9883" x="799.4473" y="475.8906"/><text fill="#000000" font-family="sans-serif" font-size="14" lengthAdjust="spacing" textLength="138.9883" x="806.4473" y="495.8857">InvestigadorService</text><text fill="#000000" font-family="sans-serif" font-size="14" lengthAdjust="spacing" textLength="65.7412" x="843.0708" y="512.1826">@Service</text></g><g class="participant participant-head" data-entity-uid="part5" data-qualified-name="Repo" data-source-line="7" id="part5-head"><rect fill="#E2E2F0" height="46.5938" rx="2.5" ry="2.5" style="stroke:#181818;stroke-width:0.5;" width="176.3193" x="962.4355" y="33.7031"/><text fill="#000000" font-family="sans-serif" font-size="14" lengthAdjust="spacing" textLength="162.3193" x="969.4355" y="53.6982">InvestigadorRepository</text><text fill="#000000" font-family="sans-serif" font-size="14" lengthAdjust="spacing" textLength="96.667" x="1002.2617" y="69.9951">JpaRepository</text></g><g class="participant participant-tail" data-entity-uid="part5" data-qualified-name="Repo" data-source-line="7" id="part5-tail"><rect fill="#E2E2F0" height="46.5938" rx="2.5" ry="2.5" style="stroke:#181818;stroke-width:0.5;" width="176.3193" x="962.4355" y="475.8906"/><text fill="#000000" font-family="sans-serif" font-size="14" lengthAdjust="spacing" textLength="162.3193" x="969.4355" y="495.8857">InvestigadorRepository</text><text fill="#000000" font-family="sans-serif" font-size="14" lengthAdjust="spacing" textLength="96.667" x="1002.2617" y="512.1826">JpaRepository</text></g><g class="participant participant-head" data-entity-uid="part6" data-qualified-name="DB" data-source-line="8" id="part6-head"><text fill="#000000" font-family="sans-serif" font-size="14" lengthAdjust="spacing" textLength="19.4346" x="1370.353" y="77.9951">H2</text><path d="M1365.0703,29 C1365.0703,19 1383.0703,19 1383.0703,19 C1383.0703,19 1401.0703,19 1401.0703,29 L1401.0703,55 C1401.0703,65 1383.0703,65 1383.0703,65 C1383.0703,65 1365.0703,65 1365.0703,55 L1365.0703,29" fill="#E2E2F0" style="stroke:#181818;stroke-width:0.5;"/><path d="M1365.0703,29 C1365.0703,39 1383.0703,39 1383.0703,39 C1383.0703,39 1401.0703,39 1401.0703,29" fill="none" style="stroke:#181818;stroke-width:0.5;"/></g><g class="participant participant-tail" data-entity-uid="part6" data-qualified-name="DB" data-source-line="8" id="part6-tail"><text fill="#000000" font-family="sans-serif" font-size="14" lengthAdjust="spacing" textLength="19.4346" x="1370.353" y="488.8857">H2</text><path d="M1365.0703,502.1875 C1365.0703,492.1875 1383.0703,492.1875 1383.0703,492.1875 C1383.0703,492.1875 1401.0703,492.1875 1401.0703,502.1875 L1401.0703,528.1875 C1401.0703,538.1875 1383.0703,538.1875 1383.0703,538.1875 C1383.0703,538.1875 1365.0703,538.1875 1365.0703,528.1875 L1365.0703,502.1875" fill="#E2E2F0" style="stroke:#181818;stroke-width:0.5;"/><path d="M1365.0703,502.1875 C1365.0703,512.1875 1383.0703,512.1875 1383.0703,512.1875 C1383.0703,512.1875 1401.0703,512.1875 1401.0703,502.1875" fill="none" style="stroke:#181818;stroke-width:0.5;"/></g><g><title>Navegador</title><rect fill="#FFFFFF" height="346.4609" style="stroke:#181818;stroke-width:1;" width="10" x="341.835" y="112.4297"/></g><g><title>CargaTrabajoController</title><rect fill="#FFFFFF" height="288.1953" style="stroke:#181818;stroke-width:1;" width="10" x="557.2383" y="141.5625"/></g><g><title>InvestigadorService</title><rect fill="#FFFFFF" height="116.5313" style="stroke:#181818;stroke-width:1;" width="10" x="870.9414" y="212.8281"/></g><g><title>InvestigadorRepository</title><rect fill="#FFFFFF" height="58.2656" style="stroke:#181818;stroke-width:1;" width="10" x="1045.5952" y="241.9609"/></g><g class="message" data-entity-1="part1" data-entity-2="part2" data-source-line="10" id="msg1"><polygon fill="#181818" points="329.835,108.4297,339.835,112.4297,329.835,116.4297,333.835,112.4297" style="stroke:#181818;stroke-width:1;stroke-linejoin:miter;stroke-miterlimit:10;"/><line style="stroke:#181818;stroke-width:1;" x1="51.0493" x2="335.835" y1="112.4297" y2="112.4297"/><text fill="#000000" font-family="sans-serif" font-size="13" lengthAdjust="spacing" textLength="167.2925" x="58.0493" y="107.3638">clic en "Carga de trabajo"</text></g><g class="message" data-entity-1="part2" data-entity-2="part3" data-source-line="12" id="msg2"><polygon fill="#181818" points="545.2383,137.5625,555.2383,141.5625,545.2383,145.5625,549.2383,141.5625" style="stroke:#181818;stroke-width:1;stroke-linejoin:miter;stroke-miterlimit:10;"/><line style="stroke:#181818;stroke-width:1;" x1="351.835" x2="551.2383" y1="141.5625" y2="141.5625"/><text fill="#000000" font-family="sans-serif" font-size="13" lengthAdjust="spacing" textLength="122.3003" x="358.835" y="136.4966">GET /carga-trabajo</text></g><g class="message" data-entity-1="part3" data-entity-2="part3" data-source-line="14" id="msg3"><line style="stroke:#181818;stroke-width:1;" x1="567.2383" x2="609.2383" y1="170.6953" y2="170.6953"/><line style="stroke:#181818;stroke-width:1;" x1="609.2383" x2="609.2383" y1="170.6953" y2="183.6953"/><line style="stroke:#181818;stroke-width:1;" x1="568.2383" x2="609.2383" y1="183.6953" y2="183.6953"/><polygon fill="#181818" points="578.2383,179.6953,568.2383,183.6953,578.2383,187.6953,574.2383,183.6953" style="stroke:#181818;stroke-width:1;stroke-linejoin:miter;stroke-miterlimit:10;"/><text fill="#000000" font-family="sans-serif" font-size="13" lengthAdjust="spacing" textLength="267.376" x="574.2383" y="165.6294">investigador.getRol() == COORDINADOR</text></g><g class="message" data-entity-1="part3" data-entity-2="part4" data-source-line="15" id="msg4"><polygon fill="#181818" points="858.9414,208.8281,868.9414,212.8281,858.9414,216.8281,862.9414,212.8281" style="stroke:#181818;stroke-width:1;stroke-linejoin:miter;stroke-miterlimit:10;"/><line style="stroke:#181818;stroke-width:1;" x1="567.2383" x2="864.9414" y1="212.8281" y2="212.8281"/><text fill="#000000" font-family="sans-serif" font-size="13" lengthAdjust="spacing" textLength="180.5146" x="574.2383" y="207.7622">obtenerInvestigadores(null)</text></g><g class="message" data-entity-1="part4" data-entity-2="part5" data-source-line="17" id="msg5"><polygon fill="#181818" points="1033.5952,237.9609,1043.5952,241.9609,1033.5952,245.9609,1037.5952,241.9609" style="stroke:#181818;stroke-width:1;stroke-linejoin:miter;stroke-miterlimit:10;"/><line style="stroke:#181818;stroke-width:1;" x1="880.9414" x2="1039.5952" y1="241.9609" y2="241.9609"/><text fill="#000000" font-family="sans-serif" font-size="13" lengthAdjust="spacing" textLength="50.9399" x="887.9414" y="236.895">findAll()</text></g><g class="message" data-entity-1="part5" data-entity-2="part6" data-source-line="19" id="msg6"><polygon fill="#181818" points="1371.0703,267.0938,1381.0703,271.0938,1371.0703,275.0938,1375.0703,271.0938" style="stroke:#181818;stroke-width:1;stroke-linejoin:miter;stroke-miterlimit:10;"/><line style="stroke:#181818;stroke-width:1;" x1="1055.5952" x2="1377.0703" y1="271.0938" y2="271.0938"/><text fill="#000000" font-family="sans-serif" font-size="13" lengthAdjust="spacing" textLength="201.3604" x="1062.5952" y="266.0278">SELECT * FROM investigadores</text></g><g class="message" data-entity-1="part6" data-entity-2="part5" data-source-line="20" id="msg7"><polygon fill="#181818" points="1061.5952,296.2266,1051.5952,300.2266,1061.5952,304.2266,1057.5952,300.2266" style="stroke:#181818;stroke-width:1;stroke-linejoin:miter;stroke-miterlimit:10;"/><line style="stroke:#181818;stroke-width:1;stroke-dasharray:2,2;" x1="1055.5952" x2="1382.0703" y1="300.2266" y2="300.2266"/><text fill="#000000" font-family="sans-serif" font-size="13" lengthAdjust="spacing" textLength="303.4751" x="1067.5952" y="295.1606">List&lt;Investigador&gt; [con CargaTrabajo EAGER]</text></g><g class="message" data-entity-1="part5" data-entity-2="part4" data-source-line="22" id="msg8"><polygon fill="#181818" points="886.9414,325.3594,876.9414,329.3594,886.9414,333.3594,882.9414,329.3594" style="stroke:#181818;stroke-width:1;stroke-linejoin:miter;stroke-miterlimit:10;"/><line style="stroke:#181818;stroke-width:1;stroke-dasharray:2,2;" x1="880.9414" x2="1049.5952" y1="329.3594" y2="329.3594"/><text fill="#000000" font-family="sans-serif" font-size="13" lengthAdjust="spacing" textLength="125.5249" x="892.9414" y="324.2935">List&lt;Investigador&gt;</text></g><g class="message" data-entity-1="part4" data-entity-2="part3" data-source-line="24" id="msg9"><polygon fill="#181818" points="578.2383,354.4922,568.2383,358.4922,578.2383,362.4922,574.2383,358.4922" style="stroke:#181818;stroke-width:1;stroke-linejoin:miter;stroke-miterlimit:10;"/><line style="stroke:#181818;stroke-width:1;stroke-dasharray:2,2;" x1="572.2383" x2="874.9414" y1="358.4922" y2="358.4922"/><text fill="#000000" font-family="sans-serif" font-size="13" lengthAdjust="spacing" textLength="125.5249" x="584.2383" y="353.4263">List&lt;Investigador&gt;</text></g><g class="message" data-entity-1="part3" data-entity-2="part3" data-source-line="25" id="msg10"><line style="stroke:#181818;stroke-width:1;" x1="567.2383" x2="609.2383" y1="387.625" y2="387.625"/><line style="stroke:#181818;stroke-width:1;" x1="609.2383" x2="609.2383" y1="387.625" y2="400.625"/><line style="stroke:#181818;stroke-width:1;" x1="568.2383" x2="609.2383" y1="400.625" y2="400.625"/><polygon fill="#181818" points="578.2383,396.625,568.2383,400.625,578.2383,404.625,574.2383,400.625" style="stroke:#181818;stroke-width:1;stroke-linejoin:miter;stroke-miterlimit:10;"/><text fill="#000000" font-family="sans-serif" font-size="13" lengthAdjust="spacing" textLength="279.7031" x="574.2383" y="382.5591">model.addAttribute("investigadores", lista)</text></g><g class="message" data-entity-1="part3" data-entity-2="part2" data-source-line="26" id="msg11"><polygon fill="#181818" points="362.835,425.7578,352.835,429.7578,362.835,433.7578,358.835,429.7578" style="stroke:#181818;stroke-width:1;stroke-linejoin:miter;stroke-miterlimit:10;"/><line style="stroke:#181818;stroke-width:1;stroke-dasharray:2,2;" x1="356.835" x2="561.2383" y1="429.7578" y2="429.7578"/><text fill="#000000" font-family="sans-serif" font-size="13" lengthAdjust="spacing" textLength="181.4033" x="368.835" y="424.6919">200 OK &#183; carga-trabajo.html</text></g><g class="message" data-entity-1="part2" data-entity-2="part1" data-source-line="28" id="msg12"><polygon fill="#181818" points="62.0493,454.8906,52.0493,458.8906,62.0493,462.8906,58.0493,458.8906" style="stroke:#181818;stroke-width:1;stroke-linejoin:miter;stroke-miterlimit:10;"/><line style="stroke:#181818;stroke-width:1;stroke-dasharray:2,2;" x1="56.0493" x2="345.835" y1="458.8906" y2="458.8906"/><text fill="#000000" font-family="sans-serif" font-size="13" lengthAdjust="spacing" textLength="266.7856" x="68.0493" y="453.8247">muestra tabla global de carga de trabajo</text></g><?plantuml-src TLF1SjCm4BtxAtPyIXWIEZqoj4Fgc58ezOoR6-MmiPPKe4WUQPEPVXbtleoLwiHsKsvQwxrz-rRFuRUsBNhSWj6M-AabS9uVNPPXmyv3NZZdbRQedCy10wGw4mhhHhTe6V8xtDFc291gV5sWt-3Aunf_kS9PziuOyW_sux2uBbVmhed86Jz3dzNOct6t6xkdm3hftPFVwuQaLNTAdExyVrfDhGjQt3qzs2yjzcMYnp9Jo3948CW_dwUlowiiIzPXTXajmdjeZ6w0R6SG5C5XyhWxlKUcj8o85bAq8gnJepqwkKsu7gy7WyytnBKpaobSN41HLVNovcwnhEeZfxCkDBTcikI7jYbCxCwOQQztsDI19XsYUw7_r5OjZ2ZruBINT2smvPM0xilRibZ16_XKLzz6WrB8137h-ztgm1-6mrp2zyPP66O3oiLrMV_85BscEN9tscx8Eh7LR_CLuejzRvqYCqUb5inUhtTCatniBNyh_qfWd7RKOo3EpywW-Wf__y3eVUUFl3N3-T8pfrH4sHGgqTs9X4UGt1c4ZN5hD35JpOjm3Hj9Zty0?></g></svg>