<svg xmlns="http://www.w3.org/2000/svg" xmlns:xlink="http://www.w3.org/1999/xlink" contentStyleType="text/css" data-diagram-type="DESCRIPTION" height="432px" preserveAspectRatio="none" style="width:2023px;height:432px;background:#FFFFFF;" version="1.1" viewBox="0 0 2023 432" width="2023px" zoomAndPan="magnify"><?plantuml 1.2026.4beta2?><defs/><g><!--cluster abrirOpcionesPerfilInvestigador--><g class="cluster" data-qualified-name="abrirOpcionesPerfilInvestigador" data-source-line="6" id="ent0004"><path d="M415.36,6 L796.1032,6 A3.75,3.75 0 0 1 798.6032,8.5 L805.6032,28.2969 L805.36,28.2969 A2.5,2.5 0 0 1 807.86,30.7969 L807.86,414.69 A2.5,2.5 0 0 1 805.36,417.19 L415.36,417.19 A2.5,2.5 0 0 1 412.86,414.69 L412.86,8.5 A2.5,2.5 0 0 1 415.36,6" fill="none" style="stroke:#000000;stroke-width:1.5;"/><line style="stroke:#000000;stroke-width:1.5;" x1="412.86" x2="805.6032" y1="28.2969" y2="28.2969"/><text fill="#000000" font-family="sans-serif" font-size="14" font-weight="700" lengthAdjust="spacing" textLength="379.7432" x="416.86" y="20.9951">abrirOpcionesPerfilInvestigador(investigadorId)</text></g><!--entity OpcionesPerfilInvestigadorView--><g class="entity" data-qualified-name="abrirOpcionesPerfilInvestigador.OpcionesPerfilInvestigadorView" data-source-line="7" id="ent0005"><rect fill="#629EF9" height="36.2969" rx="2.5" ry="2.5" style="stroke:#181818;stroke-width:0.5;" width="241.1357" x="550.29" y="41"/><text fill="#000000" font-family="sans-serif" font-size="14" lengthAdjust="spacing" textLength="221.1357" x="560.29" y="63.9951">OpcionesPerfilInvestigadorView</text></g><!--entity PerfilController--><g class="entity" data-qualified-name="abrirOpcionesPerfilInvestigador.PerfilController" data-source-line="8" id="ent0006"><rect fill="#B5BD68" height="36.2969" rx="2.5" ry="2.5" style="stroke:#181818;stroke-width:0.5;" width="124.6924" x="474.51" y="154.3"/><text fill="#000000" font-family="sans-serif" font-size="14" lengthAdjust="spacing" textLength="104.6924" x="484.51" y="177.2951">PerfilController</text></g><!--entity InvestigadorRepository--><g class="entity" data-qualified-name="abrirOpcionesPerfilInvestigador.InvestigadorRepository" data-source-line="9" id="ent0007"><rect fill="#F2AC4E" height="36.2969" rx="2.5" ry="2.5" style="stroke:#181818;stroke-width:0.5;" width="182.3193" x="474.7" y="267.6"/><text fill="#000000" font-family="sans-serif" font-size="14" lengthAdjust="spacing" textLength="162.3193" x="484.7" y="290.5951">InvestigadorRepository</text></g><!--entity Investigador--><g class="entity" data-qualified-name="abrirOpcionesPerfilInvestigador.Investigador" data-source-line="10" id="ent0008"><rect fill="#F2AC4E" height="36.2969" rx="2.5" ry="2.5" style="stroke:#181818;stroke-width:0.5;" width="107.2471" x="512.23" y="364.89"/><text fill="#000000" font-family="sans-serif" font-size="14" lengthAdjust="spacing" textLength="87.2471" x="522.23" y="387.8851">Investigador</text></g><!--entity InvestigadorAbierto--><g class="entity" data-qualified-name="InvestigadorAbierto" data-source-line="3" id="ent0002"><rect fill="#CDEBA5" height="36.2969" rx="2.5" ry="2.5" style="stroke:#181818;stroke-width:0.5;" width="199.7168" x="7" y="41"/><text fill="#000000" font-family="sans-serif" font-size="14" lengthAdjust="spacing" textLength="179.7168" x="17" y="63.9951">:INVESTIGADOR_ABIERTO</text></g><!--entity SolicitudesAbiertas--><g class="entity" data-qualified-name="SolicitudesAbiertas" data-source-line="4" id="ent0003"><rect fill="#CDEBA5" height="36.2969" rx="2.5" ry="2.5" style="stroke:#181818;stroke-width:0.5;" width="347.0928" x="1135.31" y="41"/><text fill="#000000" font-family="sans-serif" font-size="14" lengthAdjust="spacing" textLength="327.0928" x="1145.31" y="63.9951">:SOLICITUDES_ELIMINACION_PERFIL_ABIERTAS</text></g><!--entity OpcionesAbierto--><g class="entity" data-qualified-name="OpcionesAbierto" data-source-line="13" id="ent0009"><rect fill="#CDEBA5" height="36.2969" rx="2.5" ry="2.5" style="stroke:#181818;stroke-width:0.5;" width="333.3047" x="824.21" y="154.3"/><text fill="#000000" font-family="sans-serif" font-size="14" lengthAdjust="spacing" textLength="313.3047" x="834.21" y="177.2951">:OPCIONES_PERFIL_INVESTIGADOR_ABIERTO</text></g><!--entity ColEditarPerfil--><g class="entity" data-qualified-name="ColEditarPerfil" data-source-line="14" id="ent0010"><rect fill="#CDEBA5" height="36.2969" rx="2.5" ry="2.5" style="stroke:#181818;stroke-width:0.5;" width="199.4365" x="1192.14" y="154.3"/><text fill="#000000" font-family="sans-serif" font-size="14" lengthAdjust="spacing" textLength="179.4365" x="1202.14" y="177.2951">:Collaboration EditarPerfil</text></g><!--entity ColSolicitudes--><g class="entity" data-qualified-name="ColSolicitudes" data-source-line="15" id="ent0011"><rect fill="#CDEBA5" height="36.2969" rx="2.5" ry="2.5" style="stroke:#181818;stroke-width:0.5;" width="348.46" x="1426.63" y="154.3"/><text fill="#000000" font-family="sans-serif" font-size="14" lengthAdjust="spacing" textLength="328.46" x="1436.63" y="177.2951">:Collaboration AbrirSolicitudesEliminacionPerfil</text></g><!--entity InvestigadorSalida--><g class="entity" data-qualified-name="InvestigadorSalida" data-source-line="16" id="ent0012"><rect fill="#CDEBA5" height="36.2969" rx="2.5" ry="2.5" style="stroke:#181818;stroke-width:0.5;" width="199.7168" x="1810" y="154.3"/><text fill="#000000" font-family="sans-serif" font-size="14" lengthAdjust="spacing" textLength="179.7168" x="1820" y="177.2951">:INVESTIGADOR_ABIERTO</text></g><!--link InvestigadorAbierto to OpcionesPerfilInvestigadorView--><g class="link" data-entity-1="ent0002" data-entity-2="ent0005" data-link-type="dependency" data-source-line="18" id="lnk13"><path d="M207.04,59.15 C302.95,59.15 441.78,59.15 544.04,59.15" fill="none" id="InvestigadorAbierto-to-OpcionesPerfilInvestigadorView" style="stroke:#181818;stroke-width:1;"/><polygon fill="#181818" points="550.04,59.15,541.04,55.15,545.04,59.15,541.04,63.15,550.04,59.15" style="stroke:#181818;stroke-width:1;"/><text fill="#000000" font-family="sans-serif" font-size="13" lengthAdjust="spacing" textLength="307.7471" x="225" y="52.2169">abrirOpcionesPerfilInvestigador(investigadorId)</text></g><!--link SolicitudesAbiertas to OpcionesPerfilInvestigadorView--><g class="link" data-entity-1="ent0003" data-entity-2="ent0005" data-link-type="dependency" data-source-line="19" id="lnk14"><path d="M1134.98,59.15 C1026.12,59.15 894.61,59.15 797.61,59.15" fill="none" id="SolicitudesAbiertas-to-OpcionesPerfilInvestigadorView" style="stroke:#181818;stroke-width:1;"/><polygon fill="#181818" points="791.61,59.15,800.61,63.15,796.61,59.15,800.61,55.15,791.61,59.15" style="stroke:#181818;stroke-width:1;"/><text fill="#000000" font-family="sans-serif" font-size="13" lengthAdjust="spacing" textLength="307.7471" x="809.87" y="52.2169">abrirOpcionesPerfilInvestigador(investigadorId)</text></g><!--link OpcionesPerfilInvestigadorView to PerfilController--><g class="link" data-entity-1="ent0005" data-entity-2="ent0006" data-link-type="dependency" data-source-line="21" id="lnk15"><path d="M649.63,77.79 C624.53,98.63 587.6552,129.256 562.6052,150.066" fill="none" id="OpcionesPerfilInvestigadorView-to-PerfilController" style="stroke:#181818;stroke-width:1;"/><polygon fill="#181818" points="557.99,153.9,567.4688,151.2258,561.836,150.705,562.3568,145.0721,557.99,153.9" style="stroke:#181818;stroke-width:1;"/><text fill="#000000" font-family="sans-serif" font-size="13" lengthAdjust="spacing" textLength="280.5474" x="612.86" y="120.3669">obtenerPerfil(investigadorId) : Investigador</text></g><!--link PerfilController to InvestigadorRepository--><g class="link" data-entity-1="ent0006" data-entity-2="ent0007" data-link-type="dependency" data-source-line="23" id="lnk16"><path d="M541.39,190.84 C546.81,211.62 554.3086,240.4035 559.7486,261.3035" fill="none" id="PerfilController-to-InvestigadorRepository" style="stroke:#181818;stroke-width:1;"/><polygon fill="#181818" points="561.26,267.11,562.864,257.3926,560.0005,262.2712,555.1219,259.4078,561.26,267.11" style="stroke:#181818;stroke-width:1;"/><text fill="#000000" font-family="sans-serif" font-size="13" lengthAdjust="spacing" textLength="280.7886" x="553.86" y="233.6669">obtenerPorId(investigadorId) : Investigador</text></g><!--link InvestigadorRepository to Investigador--><g class="link" data-entity-1="ent0007" data-entity-2="ent0008" data-link-type="association" data-source-line="25" id="lnk17"><path d="M565.86,304.22 C565.86,321.42 565.86,347.52 565.86,364.67" fill="none" id="InvestigadorRepository-Investigador" style="stroke:#181818;stroke-width:1;"/></g><!--link OpcionesPerfilInvestigadorView to OpcionesAbierto--><g class="link" data-entity-1="ent0005" data-entity-2="ent0009" data-link-type="dependency" data-source-line="27" id="lnk18"><path d="M757.2,77.77 C822.81,91.17 901.86,107.3 901.86,107.3 C901.86,107.3 935.3224,131.422 961.6724,150.412" fill="none" id="OpcionesPerfilInvestigadorView-to-OpcionesAbierto" style="stroke:#181818;stroke-width:1;stroke-dasharray:7,7;"/><polygon fill="#181818" points="966.54,153.92,961.5772,145.4129,962.4836,150.9967,956.8999,151.9031,966.54,153.92" style="stroke:#181818;stroke-width:1;"/><text fill="#000000" font-family="sans-serif" font-size="13" lengthAdjust="spacing" textLength="104.0952" x="923.86" y="120.3669">perfilMostrado()</text></g><!--link OpcionesPerfilInvestigadorView to ColEditarPerfil--><g class="link" data-entity-1="ent0005" data-entity-2="ent0010" data-link-type="dependency" data-source-line="28" id="lnk19"><path d="M791.71,75.72 C898.32,89.45 1036.86,107.3 1036.86,107.3 C1036.86,107.3 1140.5313,133.3763 1216.0213,152.3663" fill="none" id="OpcionesPerfilInvestigadorView-to-ColEditarPerfil" style="stroke:#181818;stroke-width:1;stroke-dasharray:7,7;"/><polygon fill="#181818" points="1221.84,153.83,1214.0877,147.7553,1216.9911,152.6102,1212.1361,155.5135,1221.84,153.83" style="stroke:#181818;stroke-width:1;"/><text fill="#000000" font-family="sans-serif" font-size="13" lengthAdjust="spacing" textLength="174.2749" x="1098.86" y="120.3669">editarPerfil(investigadorId)</text></g><!--link OpcionesPerfilInvestigadorView to ColSolicitudes--><g class="link" data-entity-1="ent0005" data-entity-2="ent0011" data-link-type="dependency" data-source-line="29" id="lnk20"><path d="M791.57,69.47 C969.64,83.21 1281.86,107.3 1281.86,107.3 C1281.86,107.3 1412.9477,133.6572 1507.3877,152.6472" fill="none" id="OpcionesPerfilInvestigadorView-to-ColSolicitudes" style="stroke:#181818;stroke-width:1;stroke-dasharray:7,7;"/><polygon fill="#181818" points="1513.27,153.83,1505.2351,148.1343,1508.3681,152.8443,1503.6581,155.9773,1513.27,153.83" style="stroke:#181818;stroke-width:1;"/><text fill="#000000" font-family="sans-serif" font-size="13" lengthAdjust="spacing" textLength="219.064" x="1359.86" y="120.3669">abrirSolicitudesEliminacionPerfil()</text></g><!--link OpcionesPerfilInvestigadorView to InvestigadorSalida--><g class="link" data-entity-1="ent0005" data-entity-2="ent0012" data-link-type="dependency" data-source-line="30" id="lnk21"><path d="M791.68,66.36 C1040.69,79.17 1587.86,107.3 1587.86,107.3 C1587.86,107.3 1720.2356,133.6677 1815.5556,152.6577" fill="none" id="OpcionesPerfilInvestigadorView-to-InvestigadorSalida" style="stroke:#181818;stroke-width:1;stroke-dasharray:7,7;"/><polygon fill="#181818" points="1821.44,153.83,1813.395,148.1486,1816.5364,152.8531,1811.8319,155.9945,1821.44,153.83" style="stroke:#181818;stroke-width:1;"/><text fill="#000000" font-family="sans-serif" font-size="13" lengthAdjust="spacing" textLength="214.5571" x="1665.86" y="120.3669">abrirInvestigador(investigadorId)</text></g><?plantuml-src jPB1Ru8m5CRl_IjUt4KFUZ3JR1nC4ElIHCM8yseATAQnKbAwBMRP_xwYB4D4O4l6xT6llxxtlY_PyoYcYXv0y8ZfOymWbkAO5WWf5cWQxGI3EsU2n_O0MXPPRB2t9a_sn5rjxJ71gxNR0fe0YTvOelcEXbBPFcTAorA0vyw8GzRF4-njyOpCoS9sYBlOBl5gIcOPqlPEJ4yA7d3z6hBaZAG9GZ4DzdJ7WFgAApSEk8nOicJgXOjy3-dzLescpNC52Jij-41WlbpVm_uZdZx2RSQ6i_VY9N_WXyC7E8iT6MabXM2gA9lsRUSUNsnknMAPS2tLiO4OVPPxv2xJZPhzPZkzwTdtL5L-EQPrwaj5jP423hccwZpO2M6Ey_yQ8EpKavopMF03ZsZQoIKtf_bx53qgU4WHAeadT5LtLEEi1R-C42h9xFyyXAg1q0tDeyK8MY1zpIAMsLM4WdKPC5Iy3rq3BG_i3pf5rPBB8OPVqDLCsUkDYZ6s83vfvpBHoWZRdIQGGf0jOBdgQldDWBaiPFvMvRvPdzVXpj1LOVa2?></g></svg>