<svg xmlns="http://www.w3.org/2000/svg" xmlns:xlink="http://www.w3.org/1999/xlink" contentStyleType="text/css" data-diagram-type="DESCRIPTION" height="432px" preserveAspectRatio="none" style="width:1123px;height:432px;background:#FFFFFF;" version="1.1" viewBox="0 0 1123 432" width="1123px" zoomAndPan="magnify"><?plantuml 1.2026.4beta2?><defs/><g><!--cluster crearPublicacion--><g class="cluster" data-qualified-name="crearPublicacion" data-source-line="5" id="ent0003"><path d="M271.21,6 L416.3321,6 A3.75,3.75 0 0 1 418.8321,8.5 L425.8321,28.2969 L592.21,28.2969 A2.5,2.5 0 0 1 594.71,30.7969 L594.71,414.69 A2.5,2.5 0 0 1 592.21,417.19 L271.21,417.19 A2.5,2.5 0 0 1 268.71,414.69 L268.71,8.5 A2.5,2.5 0 0 1 271.21,6" fill="none" style="stroke:#000000;stroke-width:1.5;"/><line style="stroke:#000000;stroke-width:1.5;" x1="268.71" x2="425.8321" y1="28.2969" y2="28.2969"/><text fill="#000000" font-family="sans-serif" font-size="14" font-weight="700" lengthAdjust="spacing" textLength="144.1221" x="272.71" y="20.9951">crearPublicacion()</text></g><!--entity CrearPublicacionView--><g class="entity" data-qualified-name="crearPublicacion.CrearPublicacionView" data-source-line="6" id="ent0004"><rect fill="#629EF9" height="36.2969" rx="2.5" ry="2.5" style="stroke:#181818;stroke-width:0.5;" width="171.293" x="406.06" y="41"/><text fill="#000000" font-family="sans-serif" font-size="14" lengthAdjust="spacing" textLength="151.293" x="416.06" y="63.9951">CrearPublicacionView</text></g><!--entity PublicacionController--><g class="entity" data-qualified-name="crearPublicacion.PublicacionController" data-source-line="7" id="ent0005"><rect fill="#B5BD68" height="36.2969" rx="2.5" ry="2.5" style="stroke:#181818;stroke-width:0.5;" width="168.4561" x="285.48" y="154.3"/><text fill="#000000" font-family="sans-serif" font-size="14" lengthAdjust="spacing" textLength="148.4561" x="295.48" y="177.2951">PublicacionController</text></g><!--entity PublicacionRepository--><g class="entity" data-qualified-name="crearPublicacion.PublicacionRepository" data-source-line="8" id="ent0006"><rect fill="#F2AC4E" height="36.2969" rx="2.5" ry="2.5" style="stroke:#181818;stroke-width:0.5;" width="174.3555" x="284.53" y="267.6"/><text fill="#000000" font-family="sans-serif" font-size="14" lengthAdjust="spacing" textLength="154.3555" x="294.53" y="290.5951">PublicacionRepository</text></g><!--entity Publicacion--><g class="entity" data-qualified-name="crearPublicacion.Publicacion" data-source-line="9" id="ent0007"><rect fill="#F2AC4E" height="36.2969" rx="2.5" ry="2.5" style="stroke:#181818;stroke-width:0.5;" width="99.2832" x="322.07" y="364.89"/><text fill="#000000" font-family="sans-serif" font-size="14" lengthAdjust="spacing" textLength="79.2832" x="332.07" y="387.8851">Publicacion</text></g><!--entity MisPublicacionesAbiertas--><g class="entity" data-qualified-name="MisPublicacionesAbiertas" data-source-line="3" id="ent0002"><rect fill="#CDEBA5" height="36.2969" rx="2.5" ry="2.5" style="stroke:#181818;stroke-width:0.5;" width="245.415" x="7" y="41"/><text fill="#000000" font-family="sans-serif" font-size="14" lengthAdjust="spacing" textLength="225.415" x="17" y="63.9951">:MIS_PUBLICACIONES_ABIERTAS</text></g><!--entity MisPublicacionesSalida--><g class="entity" data-qualified-name="MisPublicacionesSalida" data-source-line="12" id="ent0008"><rect fill="#CDEBA5" height="36.2969" rx="2.5" ry="2.5" style="stroke:#181818;stroke-width:0.5;" width="245.415" x="611" y="154.3"/><text fill="#000000" font-family="sans-serif" font-size="14" lengthAdjust="spacing" textLength="225.415" x="621" y="177.2951">:MIS_PUBLICACIONES_ABIERTAS</text></g><!--entity PanelSalida--><g class="entity" data-qualified-name="PanelSalida" data-source-line="13" id="ent0009"><rect fill="#CDEBA5" height="36.2969" rx="2.5" ry="2.5" style="stroke:#181818;stroke-width:0.5;" width="217.8047" x="891.81" y="154.3"/><text fill="#000000" font-family="sans-serif" font-size="14" lengthAdjust="spacing" textLength="197.8047" x="901.81" y="177.2951">:PANEL_PRINCIPAL_ABIERTO</text></g><!--link MisPublicacionesAbiertas to CrearPublicacionView--><g class="link" data-entity-1="ent0002" data-entity-2="ent0004" data-link-type="dependency" data-source-line="15" id="lnk10"><path d="M252.77,59.15 C303.09,59.15 354.09,59.15 399.79,59.15" fill="none" id="MisPublicacionesAbiertas-to-CrearPublicacionView" style="stroke:#181818;stroke-width:1;"/><polygon fill="#181818" points="405.79,59.15,396.79,55.15,400.79,59.15,396.79,63.15,405.79,59.15" style="stroke:#181818;stroke-width:1;"/><text fill="#000000" font-family="sans-serif" font-size="13" lengthAdjust="spacing" textLength="117.5649" x="270.74" y="52.2169">crearPublicacion()</text></g><!--link CrearPublicacionView to PublicacionController--><g class="link" data-entity-1="ent0004" data-entity-2="ent0005" data-link-type="dependency" data-source-line="17" id="lnk11"><path d="M469.37,77.71 C452.31,91.11 431.71,107.3 431.71,107.3 C431.71,107.3 409.1805,130.6164 390.8205,149.6064" fill="none" id="CrearPublicacionView-to-PublicacionController" style="stroke:#181818;stroke-width:1;"/><polygon fill="#181818" points="386.65,153.92,395.7815,150.2299,390.1254,150.3253,390.03,144.6693,386.65,153.92" style="stroke:#181818;stroke-width:1;"/><text fill="#000000" font-family="sans-serif" font-size="13" lengthAdjust="spacing" textLength="257.4355" x="432.71" y="120.3669">guardarPublicacion(datos) : Publicacion</text></g><!--link PublicacionController to PublicacionRepository--><g class="link" data-entity-1="ent0005" data-entity-2="ent0006" data-link-type="dependency" data-source-line="19" id="lnk12"><path d="M370.02,190.84 C370.39,211.62 370.9138,240.2109 371.2838,261.1109" fill="none" id="PublicacionController-to-PublicacionRepository" style="stroke:#181818;stroke-width:1;"/><polygon fill="#181818" points="371.39,267.11,375.2301,258.0406,371.3015,262.1108,367.2313,258.1822,371.39,267.11" style="stroke:#181818;stroke-width:1;"/><text fill="#000000" font-family="sans-serif" font-size="13" lengthAdjust="spacing" textLength="204.2422" x="371.71" y="233.6669">crear(publicacion) : Publicacion</text></g><!--link PublicacionRepository to Publicacion--><g class="link" data-entity-1="ent0006" data-entity-2="ent0007" data-link-type="association" data-source-line="21" id="lnk13"><path d="M371.71,304.22 C371.71,321.42 371.71,347.52 371.71,364.67" fill="none" id="PublicacionRepository-Publicacion" style="stroke:#181818;stroke-width:1;"/></g><!--link CrearPublicacionView to MisPublicacionesSalida--><g class="link" data-entity-1="ent0004" data-entity-2="ent0008" data-link-type="dependency" data-source-line="23" id="lnk14"><path d="M567.59,77.77 C625.25,91.17 694.71,107.3 694.71,107.3 C694.71,107.3 708.3821,129.8037 719.9321,148.7937" fill="none" id="CrearPublicacionView-to-MisPublicacionesSalida" style="stroke:#181818;stroke-width:1;stroke-dasharray:7,7;"/><polygon fill="#181818" points="723.05,153.92,721.7907,144.152,720.4518,149.6481,714.9557,148.3092,723.05,153.92" style="stroke:#181818;stroke-width:1;"/><text fill="#000000" font-family="sans-serif" font-size="13" lengthAdjust="spacing" textLength="150.6553" x="704.71" y="120.3669">abrirMisPublicaciones()</text></g><!--link CrearPublicacionView to PanelSalida--><g class="link" data-entity-1="ent0004" data-entity-2="ent0009" data-link-type="dependency" data-source-line="24" id="lnk15"><path d="M577.52,71.03 C687.38,84.95 863.71,107.3 863.71,107.3 C863.71,107.3 917.2761,132.3859 957.8361,151.3759" fill="none" id="CrearPublicacionView-to-PanelSalida" style="stroke:#181818;stroke-width:1;stroke-dasharray:7,7;"/><polygon fill="#181818" points="963.27,153.92,956.8152,146.4812,958.7417,151.7999,953.423,153.7264,963.27,153.92" style="stroke:#181818;stroke-width:1;"/><text fill="#000000" font-family="sans-serif" font-size="13" lengthAdjust="spacing" textLength="131.9424" x="897.71" y="120.3669">abrirPanelPrincipal()</text></g><?plantuml-src hP5FQy8m68Vl-HGltKKFzI1JPWz2p2eK_1FijgkyROC4ioGabI5ZttrL2hPTtIxBBSdpUtZpYpzART7XEoYfHNcs0gnHvyk642Vo4lL12NXWp_62JY28racwvw-BLS8eIxQREDtJHHBlNcWQ07fOIyzFcP8vvj9euMacXIlH4s8nF-91GEu4kWPpIGNTmy4mW4y2rMhCC1tFukKCM8Tza-AZYsQJh9W-GODYHfVEA2LSbrsEANkCc-nEMEDbQTpvRvPy_KjFAIfPOA-9qqsyslDTic49fwlQixrgE6gXwYovrps4BfptrXR1p-89wICXB2f7RvyH74xeYhQcmDBu8KIjgaXl7iAs-TP-FTx0tYv_Kzw2bR9DzJvfD9hV-OS8C7FITI-hSkwA6ZzHfwydt4cTIujgCFm6?></g></svg>