<svg xmlns="http://www.w3.org/2000/svg" xmlns:xlink="http://www.w3.org/1999/xlink" contentStyleType="text/css" data-diagram-type="DESCRIPTION" height="432px" preserveAspectRatio="none" style="width:1099px;height:432px;background:#FFFFFF;" version="1.1" viewBox="0 0 1099 432" width="1099px" zoomAndPan="magnify"><?plantuml 1.2026.4beta2?><defs/><g><!--cluster crearInvestigador--><g class="cluster" data-qualified-name="crearInvestigador" data-source-line="5" id="ent0003"><path d="M251.67,6 L406.1505,6 A3.75,3.75 0 0 1 408.6505,8.5 L415.6505,28.2969 L587.67,28.2969 A2.5,2.5 0 0 1 590.17,30.7969 L590.17,414.69 A2.5,2.5 0 0 1 587.67,417.19 L251.67,417.19 A2.5,2.5 0 0 1 249.17,414.69 L249.17,8.5 A2.5,2.5 0 0 1 251.67,6" fill="none" style="stroke:#000000;stroke-width:1.5;"/><line style="stroke:#000000;stroke-width:1.5;" x1="249.17" x2="415.6505" y1="28.2969" y2="28.2969"/><text fill="#000000" font-family="sans-serif" font-size="14" font-weight="700" lengthAdjust="spacing" textLength="153.4805" x="253.17" y="20.9951">crearInvestigador()</text></g><!--entity CrearInvestigadorView--><g class="entity" data-qualified-name="crearInvestigador.CrearInvestigadorView" data-source-line="6" id="ent0004"><rect fill="#629EF9" height="36.2969" rx="2.5" ry="2.5" style="stroke:#181818;stroke-width:0.5;" width="179.2568" x="393.54" y="41"/><text fill="#000000" font-family="sans-serif" font-size="14" lengthAdjust="spacing" textLength="159.2568" x="403.54" y="63.9951">CrearInvestigadorView</text></g><!--entity InvestigadorController--><g class="entity" data-qualified-name="crearInvestigador.InvestigadorController" data-source-line="7" id="ent0005"><rect fill="#B5BD68" height="36.2969" rx="2.5" ry="2.5" style="stroke:#181818;stroke-width:0.5;" width="176.4199" x="264.96" y="154.3"/><text fill="#000000" font-family="sans-serif" font-size="14" lengthAdjust="spacing" textLength="156.4199" x="274.96" y="177.2951">InvestigadorController</text></g><!--entity InvestigadorRepository--><g class="entity" data-qualified-name="crearInvestigador.InvestigadorRepository" data-source-line="8" id="ent0006"><rect fill="#F2AC4E" height="36.2969" rx="2.5" ry="2.5" style="stroke:#181818;stroke-width:0.5;" width="182.3193" x="265.01" y="267.6"/><text fill="#000000" font-family="sans-serif" font-size="14" lengthAdjust="spacing" textLength="162.3193" x="275.01" y="290.5951">InvestigadorRepository</text></g><!--entity Investigador--><g class="entity" data-qualified-name="crearInvestigador.Investigador" data-source-line="9" id="ent0007"><rect fill="#F2AC4E" height="36.2969" rx="2.5" ry="2.5" style="stroke:#181818;stroke-width:0.5;" width="107.2471" x="302.54" y="364.89"/><text fill="#000000" font-family="sans-serif" font-size="14" lengthAdjust="spacing" textLength="87.2471" x="312.54" y="387.8851">Investigador</text></g><!--entity InvestigadoresAbiertos--><g class="entity" data-qualified-name="InvestigadoresAbiertos" data-source-line="3" id="ent0002"><rect fill="#CDEBA5" height="36.2969" rx="2.5" ry="2.5" style="stroke:#181818;stroke-width:0.5;" width="226.3359" x="7" y="41"/><text fill="#000000" font-family="sans-serif" font-size="14" lengthAdjust="spacing" textLength="206.3359" x="17" y="63.9951">:INVESTIGADORES_ABIERTOS</text></g><!--entity InvestigadoresSalida--><g class="entity" data-qualified-name="InvestigadoresSalida" data-source-line="12" id="ent0008"><rect fill="#CDEBA5" height="36.2969" rx="2.5" ry="2.5" style="stroke:#181818;stroke-width:0.5;" width="226.3359" x="606" y="154.3"/><text fill="#000000" font-family="sans-serif" font-size="14" lengthAdjust="spacing" textLength="206.3359" x="616" y="177.2951">:INVESTIGADORES_ABIERTOS</text></g><!--entity PanelSalida--><g class="entity" data-qualified-name="PanelSalida" data-source-line="13" id="ent0009"><rect fill="#CDEBA5" height="36.2969" rx="2.5" ry="2.5" style="stroke:#181818;stroke-width:0.5;" width="217.8047" x="867.27" y="154.3"/><text fill="#000000" font-family="sans-serif" font-size="14" lengthAdjust="spacing" textLength="197.8047" x="877.27" y="177.2951">:PANEL_PRINCIPAL_ABIERTO</text></g><!--link InvestigadoresAbiertos to CrearInvestigadorView--><g class="link" data-entity-1="ent0002" data-entity-2="ent0004" data-link-type="dependency" data-source-line="15" id="lnk10"><path d="M233.53,59.15 C284.91,59.15 338.82,59.15 387.06,59.15" fill="none" id="InvestigadoresAbiertos-to-CrearInvestigadorView" style="stroke:#181818;stroke-width:1;"/><polygon fill="#181818" points="393.06,59.15,384.06,55.15,388.06,59.15,384.06,63.15,393.06,59.15" style="stroke:#181818;stroke-width:1;"/><text fill="#000000" font-family="sans-serif" font-size="13" lengthAdjust="spacing" textLength="124.96" x="251.44" y="52.2169">crearInvestigador()</text></g><!--link CrearInvestigadorView to InvestigadorController--><g class="link" data-entity-1="ent0004" data-entity-2="ent0005" data-link-type="dependency" data-source-line="17" id="lnk11"><path d="M453.01,77.71 C429.98,91.11 402.17,107.3 402.17,107.3 C402.17,107.3 384.7128,130.1624 370.2028,149.1524" fill="none" id="CrearInvestigadorView-to-InvestigadorController" style="stroke:#181818;stroke-width:1;"/><polygon fill="#181818" points="366.56,153.92,375.2026,149.1972,369.5957,149.947,368.8459,144.3401,366.56,153.92" style="stroke:#181818;stroke-width:1;"/><text fill="#000000" font-family="sans-serif" font-size="13" lengthAdjust="spacing" textLength="272.2256" x="403.17" y="120.3669">guardarInvestigador(datos) : Investigador</text></g><!--link InvestigadorController to InvestigadorRepository--><g class="link" data-entity-1="ent0005" data-entity-2="ent0006" data-link-type="dependency" data-source-line="19" id="lnk12"><path d="M353.64,190.84 C354.2,211.62 354.9693,240.2122 355.5293,261.1122" fill="none" id="InvestigadorController-to-InvestigadorRepository" style="stroke:#181818;stroke-width:1;"/><polygon fill="#181818" points="355.69,267.11,359.4475,258.0061,355.5561,262.1118,351.4504,258.2204,355.69,267.11" style="stroke:#181818;stroke-width:1;"/><text fill="#000000" font-family="sans-serif" font-size="13" lengthAdjust="spacing" textLength="218.3975" x="355.17" y="233.6669">crear(investigador) : Investigador</text></g><!--link InvestigadorRepository to Investigador--><g class="link" data-entity-1="ent0006" data-entity-2="ent0007" data-link-type="association" data-source-line="21" id="lnk13"><path d="M356.17,304.22 C356.17,321.42 356.17,347.52 356.17,364.67" fill="none" id="InvestigadorRepository-Investigador" style="stroke:#181818;stroke-width:1;"/></g><!--link CrearInvestigadorView to InvestigadoresSalida--><g class="link" data-entity-1="ent0004" data-entity-2="ent0008" data-link-type="dependency" data-source-line="23" id="lnk14"><path d="M556.8,77.77 C612.76,91.17 680.17,107.3 680.17,107.3 C680.17,107.3 693.8421,129.8037 705.3921,148.7937" fill="none" id="CrearInvestigadorView-to-InvestigadoresSalida" style="stroke:#181818;stroke-width:1;stroke-dasharray:7,7;"/><polygon fill="#181818" points="708.51,153.92,707.2507,144.152,705.9118,149.6481,700.4157,148.3092,708.51,153.92" style="stroke:#181818;stroke-width:1;"/><text fill="#000000" font-family="sans-serif" font-size="13" lengthAdjust="spacing" textLength="136.4492" x="690.17" y="120.3669">abrirInvestigadores()</text></g><!--link CrearInvestigadorView to PanelSalida--><g class="link" data-entity-1="ent0004" data-entity-2="ent0009" data-link-type="dependency" data-source-line="24" id="lnk15"><path d="M572.9,72.17 C677.19,86.14 835.17,107.3 835.17,107.3 C835.17,107.3 890.4284,132.4458 932.1784,151.4358" fill="none" id="CrearInvestigadorView-to-PanelSalida" style="stroke:#181818;stroke-width:1;stroke-dasharray:7,7;"/><polygon fill="#181818" points="937.64,153.92,931.1038,146.5527,933.0887,151.8498,927.7915,153.8348,937.64,153.92" style="stroke:#181818;stroke-width:1;"/><text fill="#000000" font-family="sans-serif" font-size="13" lengthAdjust="spacing" textLength="131.9424" x="870.17" y="120.3669">abrirPanelPrincipal()</text></g><?plantuml-src fP51Qy9048Nl-ok6zAA7U90gDGSXnhK4H4CYNcMIB65nknicQOkK_lT6iPZ4RIbqRplpthUpRwgZr2KIle2IMjIdKa1frEbyOOn4LgCkb827OCaN_WGSBzpiUR8Bd_tbDkR9mL-4FDvj4mUmWb2_YQgM1UQ6HEMdKb1jAiPAp8vO2CX88BL5PvDpLnqC7VXWq9pM0DFnZAzc4FJ5UodU-zfqakRJfyuuWT4r6QK4zSMhiHyyyeuu5gMfP6tez0Sn-_nlK0agcQCL4laRlZv4SRW9miXVVrCka0YrK5SliqSFBhbpUsOUM79dpAe5DsymzZWzA5wHyXufn-Rr8NZTf9WT0MwFVil_EkL0jhg_Os_U1jlJsJyt6isj2_40KvBKRJKP_KnfRUHglbGYaZgJ9Qh1y0i0?></g></svg>