<svg xmlns="http://www.w3.org/2000/svg" xmlns:xlink="http://www.w3.org/1999/xlink" contentStyleType="text/css" data-diagram-type="DESCRIPTION" height="432px" preserveAspectRatio="none" style="width:818px;height:432px;background:#FFFFFF;" version="1.1" viewBox="0 0 818 432" width="818px" zoomAndPan="magnify"><?plantuml 1.2026.4beta2?><defs/><g><!--cluster eliminarEntregable--><g class="cluster" data-qualified-name="eliminarEntregable" data-source-line="5" id="ent0003"><path d="M331.65,6 L496.651,6 A3.75,3.75 0 0 1 499.151,8.5 L506.151,28.2969 L581.65,28.2969 A2.5,2.5 0 0 1 584.15,30.7969 L584.15,414.69 A2.5,2.5 0 0 1 581.65,417.19 L331.65,417.19 A2.5,2.5 0 0 1 329.15,414.69 L329.15,8.5 A2.5,2.5 0 0 1 331.65,6" fill="none" style="stroke:#000000;stroke-width:1.5;"/><line style="stroke:#000000;stroke-width:1.5;" x1="329.15" x2="506.151" y1="28.2969" y2="28.2969"/><text fill="#000000" font-family="sans-serif" font-size="14" font-weight="700" lengthAdjust="spacing" textLength="164.001" x="333.15" y="20.9951">eliminarEntregable()</text></g><!--entity EliminarEntregableView--><g class="entity" data-qualified-name="eliminarEntregable.EliminarEntregableView" data-source-line="6" id="ent0004"><rect fill="#629EF9" height="36.2969" rx="2.5" ry="2.5" style="stroke:#181818;stroke-width:0.5;" width="187.3232" x="363.48" y="41"/><text fill="#000000" font-family="sans-serif" font-size="14" lengthAdjust="spacing" textLength="167.3232" x="373.48" y="63.9951">EliminarEntregableView</text></g><!--entity EntregableController--><g class="entity" data-qualified-name="eliminarEntregable.EntregableController" data-source-line="7" id="ent0005"><rect fill="#B5BD68" height="36.2969" rx="2.5" ry="2.5" style="stroke:#181818;stroke-width:0.5;" width="165.6055" x="345.34" y="154.3"/><text fill="#000000" font-family="sans-serif" font-size="14" lengthAdjust="spacing" textLength="145.6055" x="355.34" y="177.2951">EntregableController</text></g><!--entity EntregableRepository--><g class="entity" data-qualified-name="eliminarEntregable.EntregableRepository" data-source-line="8" id="ent0006"><rect fill="#F2AC4E" height="36.2969" rx="2.5" ry="2.5" style="stroke:#181818;stroke-width:0.5;" width="171.5049" x="345.39" y="267.6"/><text fill="#000000" font-family="sans-serif" font-size="14" lengthAdjust="spacing" textLength="151.5049" x="355.39" y="290.5951">EntregableRepository</text></g><!--entity Entregable--><g class="entity" data-qualified-name="eliminarEntregable.Entregable" data-source-line="9" id="ent0007"><rect fill="#F2AC4E" height="36.2969" rx="2.5" ry="2.5" style="stroke:#181818;stroke-width:0.5;" width="96.4326" x="382.93" y="364.89"/><text fill="#000000" font-family="sans-serif" font-size="14" lengthAdjust="spacing" textLength="76.4326" x="392.93" y="387.8851">Entregable</text></g><!--entity EntregableAbierto--><g class="entity" data-qualified-name="EntregableAbierto" data-source-line="3" id="ent0002"><rect fill="#CDEBA5" height="36.2969" rx="2.5" ry="2.5" style="stroke:#181818;stroke-width:0.5;" width="186.291" x="7" y="41"/><text fill="#000000" font-family="sans-serif" font-size="14" lengthAdjust="spacing" textLength="166.291" x="17" y="63.9951">:ENTREGABLE_ABIERTO</text></g><!--entity EntregablesSalida--><g class="entity" data-qualified-name="EntregablesSalida" data-source-line="12" id="ent0008"><rect fill="#CDEBA5" height="36.2969" rx="2.5" ry="2.5" style="stroke:#181818;stroke-width:0.5;" width="204.0645" x="600.11" y="154.3"/><text fill="#000000" font-family="sans-serif" font-size="14" lengthAdjust="spacing" textLength="184.0645" x="610.11" y="177.2951">:ENTREGABLES_ABIERTOS</text></g><!--link EntregableAbierto to EliminarEntregableView--><g class="link" data-entity-1="ent0002" data-entity-2="ent0004" data-link-type="dependency" data-source-line="14" id="lnk9"><path d="M193.48,59.15 C245.74,59.15 304.74,59.15 357.12,59.15" fill="none" id="EntregableAbierto-to-EliminarEntregableView" style="stroke:#181818;stroke-width:1;"/><polygon fill="#181818" points="363.12,59.15,354.12,55.15,358.12,59.15,354.12,63.15,363.12,59.15" style="stroke:#181818;stroke-width:1;"/><text fill="#000000" font-family="sans-serif" font-size="13" lengthAdjust="spacing" textLength="134.1641" x="211.39" y="52.2169">eliminarEntregable()</text></g><!--link EliminarEntregableView to EntregableController--><g class="link" data-entity-1="ent0004" data-entity-2="ent0005" data-link-type="dependency" data-source-line="16" id="lnk10"><path d="M452.61,77.54 C447.2,98.33 439.692,127.1136 434.252,148.0036" fill="none" id="EliminarEntregableView-to-EntregableController" style="stroke:#181818;stroke-width:1;"/><polygon fill="#181818" points="432.74,153.81,438.879,146.1085,434,148.9714,431.1372,144.0924,432.74,153.81" style="stroke:#181818;stroke-width:1;"/><text fill="#000000" font-family="sans-serif" font-size="13" lengthAdjust="spacing" textLength="186.1831" x="445.15" y="120.3669">eliminarEntregable(id) : void</text></g><!--link EntregableController to EntregableRepository--><g class="link" data-entity-1="ent0005" data-entity-2="ent0006" data-link-type="dependency" data-source-line="18" id="lnk11"><path d="M428.61,190.84 C429.17,211.62 429.9493,240.2122 430.5093,261.1122" fill="none" id="EntregableController-to-EntregableRepository" style="stroke:#181818;stroke-width:1;"/><polygon fill="#181818" points="430.67,267.11,434.4275,258.0061,430.5361,262.1118,426.4304,258.2204,430.67,267.11" style="stroke:#181818;stroke-width:1;"/><text fill="#000000" font-family="sans-serif" font-size="13" lengthAdjust="spacing" textLength="148.4336" x="430.15" y="233.6669">eliminarPorId(id) : void</text></g><!--link EntregableRepository to Entregable--><g class="link" data-entity-1="ent0006" data-entity-2="ent0007" data-link-type="association" data-source-line="20" id="lnk12"><path d="M431.15,304.22 C431.15,321.42 431.15,347.52 431.15,364.67" fill="none" id="EntregableRepository-Entregable" style="stroke:#181818;stroke-width:1;"/></g><!--link EliminarEntregableView to EntregablesSalida--><g class="link" data-entity-1="ent0004" data-entity-2="ent0008" data-link-type="dependency" data-source-line="22" id="lnk13"><path d="M525.55,77.77 C577.53,91.17 640.15,107.3 640.15,107.3 C640.15,107.3 662.6807,130.6153 681.0307,149.6053" fill="none" id="EliminarEntregableView-to-EntregablesSalida" style="stroke:#181818;stroke-width:1;stroke-dasharray:7,7;"/><polygon fill="#181818" points="685.2,153.92,681.8225,144.6684,681.7256,150.3244,676.0696,150.2275,685.2,153.92" style="stroke:#181818;stroke-width:1;"/><text fill="#000000" font-family="sans-serif" font-size="13" lengthAdjust="spacing" textLength="118.4092" x="655.15" y="120.3669">abrirEntregables()</text></g><?plantuml-src XP11QuCm5CVl-HGFTwa7UoXhMJqKrAMZCBQXPTVnR1xoQ6eaoeQCVVVfOPXLfJabuVV--UTNdxciqE85D9VKj1L1PNJR7uImT6gmB3J1NV8eusWDNYXVZgbyYk9d-H751vaUNpt06cJPM2emrnJbJBOnGbHuEcD1G9elNA8Ta7x06rylV0--1NJBUNYpsihz5kI8VcVwkeRpTQus3qwPn7HRepNPQtI_Yf9xwQ0fLQRcnjZs9Yf-Rhd9_kHaLtRg33Kh568a308Rx6R-6SAKhIvaaeP0zKaJ4YPpMFaGmgTXvROQXY3ubpPu6jBUZ3secQ21xu9SYNFjbylTM5W8c5jsq7hX_m80?></g></svg>