<svg xmlns="http://www.w3.org/2000/svg" xmlns:xlink="http://www.w3.org/1999/xlink" contentStyleType="text/css" data-diagram-type="DESCRIPTION" height="432px" preserveAspectRatio="none" style="width:902px;height:432px;background:#FFFFFF;" version="1.1" viewBox="0 0 902 432" width="902px" zoomAndPan="magnify"><?plantuml 1.2026.4beta2?><defs/><g><!--cluster iniciarSesion--><g class="cluster" data-qualified-name="iniciarSesion" data-source-line="5" id="ent0003"><path d="M238.48,6 L353.5855,6 A3.75,3.75 0 0 1 356.0855,8.5 L363.0855,28.2969 L652.48,28.2969 A2.5,2.5 0 0 1 654.98,30.7969 L654.98,414.69 A2.5,2.5 0 0 1 652.48,417.19 L238.48,417.19 A2.5,2.5 0 0 1 235.98,414.69 L235.98,8.5 A2.5,2.5 0 0 1 238.48,6" fill="none" style="stroke:#000000;stroke-width:1.5;"/><line style="stroke:#000000;stroke-width:1.5;" x1="235.98" x2="363.0855" y1="28.2969" y2="28.2969"/><text fill="#000000" font-family="sans-serif" font-size="14" font-weight="700" lengthAdjust="spacing" textLength="114.1055" x="239.98" y="20.9951">iniciarSesion()</text></g><!--entity IniciarSesionView--><g class="entity" data-qualified-name="iniciarSesion.IniciarSesionView" data-source-line="6" id="ent0004"><rect fill="#629EF9" height="36.2969" rx="2.5" ry="2.5" style="stroke:#181818;stroke-width:0.5;" width="142.4658" x="287.75" y="41"/><text fill="#000000" font-family="sans-serif" font-size="14" lengthAdjust="spacing" textLength="122.4658" x="297.75" y="63.9951">IniciarSesionView</text></g><!--entity AutenticacionController--><g class="entity" data-qualified-name="iniciarSesion.AutenticacionController" data-source-line="7" id="ent0005"><rect fill="#B5BD68" height="36.2969" rx="2.5" ry="2.5" style="stroke:#181818;stroke-width:0.5;" width="185.2793" x="259.34" y="154.3"/><text fill="#000000" font-family="sans-serif" font-size="14" lengthAdjust="spacing" textLength="165.2793" x="269.34" y="177.2951">AutenticacionController</text></g><!--entity UsuarioRepository--><g class="entity" data-qualified-name="iniciarSesion.UsuarioRepository" data-source-line="8" id="ent0006"><rect fill="#F2AC4E" height="36.2969" rx="2.5" ry="2.5" style="stroke:#181818;stroke-width:0.5;" width="148.2764" x="251.85" y="267.6"/><text fill="#000000" font-family="sans-serif" font-size="14" lengthAdjust="spacing" textLength="128.2764" x="261.85" y="290.5951">UsuarioRepository</text></g><!--entity Usuario--><g class="entity" data-qualified-name="iniciarSesion.Usuario" data-source-line="9" id="ent0007"><rect fill="#F2AC4E" height="36.2969" rx="2.5" ry="2.5" style="stroke:#181818;stroke-width:0.5;" width="73.2041" x="289.38" y="364.89"/><text fill="#000000" font-family="sans-serif" font-size="14" lengthAdjust="spacing" textLength="53.2041" x="299.38" y="387.8851">Usuario</text></g><!--entity SesionCerrada--><g class="entity" data-qualified-name="SesionCerrada" data-source-line="3" id="ent0002"><rect fill="#CDEBA5" height="36.2969" rx="2.5" ry="2.5" style="stroke:#181818;stroke-width:0.5;" width="151.9678" x="7" y="41"/><text fill="#000000" font-family="sans-serif" font-size="14" lengthAdjust="spacing" textLength="131.9678" x="17" y="63.9951">:SESION_CERRADA</text></g><!--entity PanelPrincipal--><g class="entity" data-qualified-name="PanelPrincipal" data-source-line="12" id="ent0008"><rect fill="#CDEBA5" height="36.2969" rx="2.5" ry="2.5" style="stroke:#181818;stroke-width:0.5;" width="217.8047" x="671.08" y="154.3"/><text fill="#000000" font-family="sans-serif" font-size="14" lengthAdjust="spacing" textLength="197.8047" x="681.08" y="177.2951">:PANEL_PRINCIPAL_ABIERTO</text></g><!--link SesionCerrada to IniciarSesionView--><g class="link" data-entity-1="ent0002" data-entity-2="ent0004" data-link-type="dependency" data-source-line="14" id="lnk9"><path d="M159.13,59.15 C199.18,59.15 241.99,59.15 281.35,59.15" fill="none" id="SesionCerrada-to-IniciarSesionView" style="stroke:#181818;stroke-width:1;"/><polygon fill="#181818" points="287.35,59.15,278.35,55.15,282.35,59.15,278.35,63.15,287.35,59.15" style="stroke:#181818;stroke-width:1;"/><text fill="#000000" font-family="sans-serif" font-size="13" lengthAdjust="spacing" textLength="92.5044" x="177.36" y="52.2169">iniciarSesion()</text></g><!--link IniciarSesionView to AutenticacionController--><g class="link" data-entity-1="ent0004" data-entity-2="ent0005" data-link-type="dependency" data-source-line="16" id="lnk10"><path d="M357.89,77.54 C356.58,98.33 354.7884,126.9319 353.4684,147.8219" fill="none" id="IniciarSesionView-to-AutenticacionController" style="stroke:#181818;stroke-width:1;"/><polygon fill="#181818" points="353.09,153.81,357.6496,145.0802,353.4053,148.82,349.6655,144.5757,353.09,153.81" style="stroke:#181818;stroke-width:1;"/><text fill="#000000" font-family="sans-serif" font-size="13" lengthAdjust="spacing" textLength="270.5879" x="355.98" y="120.3669">autenticar(usuario, contrasena) : boolean</text></g><!--link AutenticacionController to UsuarioRepository--><g class="link" data-entity-1="ent0005" data-entity-2="ent0006" data-link-type="dependency" data-source-line="18" id="lnk11"><path d="M347.92,190.84 C343.07,211.62 336.3443,240.3672 331.4643,261.2672" fill="none" id="AutenticacionController-to-UsuarioRepository" style="stroke:#181818;stroke-width:1;"/><polygon fill="#181818" points="330.1,267.11,336.0416,259.2552,331.2369,262.241,328.2512,257.4362,330.1,267.11" style="stroke:#181818;stroke-width:1;"/><text fill="#000000" font-family="sans-serif" font-size="13" lengthAdjust="spacing" textLength="350.1875" x="340.98" y="233.6669">buscarPorCredenciales(usuario, contrasena) : Usuario</text></g><!--link UsuarioRepository to Usuario--><g class="link" data-entity-1="ent0006" data-entity-2="ent0007" data-link-type="association" data-source-line="20" id="lnk12"><path d="M325.98,304.22 C325.98,321.42 325.98,347.52 325.98,364.67" fill="none" id="UsuarioRepository-Usuario" style="stroke:#181818;stroke-width:1;"/></g><!--link IniciarSesionView to PanelPrincipal--><g class="link" data-entity-1="ent0004" data-entity-2="ent0008" data-link-type="dependency" data-source-line="22" id="lnk13"><path d="M430.42,72.35 C512.2,86.32 634.98,107.3 634.98,107.3 C634.98,107.3 691.9429,132.5028 734.8729,151.4928" fill="none" id="IniciarSesionView-to-PanelPrincipal" style="stroke:#181818;stroke-width:1;stroke-dasharray:7,7;"/><polygon fill="#181818" points="740.36,153.92,733.7475,146.6211,735.7874,151.8973,730.5112,153.9373,740.36,153.92" style="stroke:#181818;stroke-width:1;"/><text fill="#000000" font-family="sans-serif" font-size="13" lengthAdjust="spacing" textLength="102.1211" x="670.98" y="120.3669">sesionIniciada()</text></g><!--link IniciarSesionView to IniciarSesionView--><g class="link" data-entity-1="ent0004" data-entity-2="ent0004" data-link-type="dependency" data-source-line="23" id="lnk14"><path d="M430.48,48.59 C450.17,49.1 465.22,52.62 465.22,59.15 C465.22,65.68 456.168,69.0446 436.478,69.5546" fill="none" id="IniciarSesionView-to-IniciarSesionView" style="stroke:#181818;stroke-width:1;stroke-dasharray:7,7;"/><polygon fill="#181818" points="430.48,69.71,439.5806,73.4756,435.4783,69.5805,439.3734,65.4783,430.48,69.71" style="stroke:#181818;stroke-width:1;"/><text fill="#000000" font-family="sans-serif" font-size="13" lengthAdjust="spacing" textLength="165.0771" x="471.22" y="63.7169">credencialesIncorrectas()</text></g><?plantuml-src VP7HQy8m4CRVyrSStOl2weDCcNqGOgrG42rrswkSwI71B2b9ov2n_tsf8jDMbxVa--wxkr_SGUeIBNw2afggOqbG6dLiBenP4XNglI9uYkV9Z8yWY3R99bsljd6IvtpE0q076tBIw9YinG8PAr4SS4yWjHGIxLbjVC7DIwyVm3S3VwxQZ8UJP361zDhu8UchxTkDTiNu5NXTaQwaGD4CO7HbZL9as-x5aCSl2Rox6gqqEPN6oShOu_y-zdEVGCPNoNARvUagJZE-tF9PckHlwnEA33Mfp4ejP8cAiHiq4DfmsjqjWXONnZeU20jV-c3T2F0Ys5vz7luPHAEZ8urzY61dZ2BKZ3t8WD3dTm3vkjhvrCpOs591VYrKv1urkO1ZdI0V_wTsjniCfYrq4RYJVFOMwAdSBxk3KroDccfXxEaNNQ__2m00?></g></svg>